<svg width="180" xmlns="http://www.w3.org/2000/svg" height="45" id="screenshot-4276bddd-88fe-80ec-8006-91a2f5215889" viewBox="0 0 180 45" xmlns:xlink="http://www.w3.org/1999/xlink" fill="none" version="1.1"><g id="shape-4276bddd-88fe-80ec-8006-91a2f5215889" width="294" height="57" rx="0" ry="0" style="fill: rgb(0, 0, 0);"><g id="shape-4276bddd-88fe-80ec-8006-91a2f52180b0" style="display: none;"><g class="fills" id="fills-4276bddd-88fe-80ec-8006-91a2f52180b0"><rect width="180" height="45" x="0" transform="matrix(1.000000, 0.000000, 0.000000, 1.000000, 0.000000, 0.000000)" style="fill: none;" ry="0" fill="none" rx="0" y="0"/></g></g><g id="shape-4276bddd-88fe-80ec-8006-91a2f52180b1" style="opacity: 0.82;"><g class="fills" id="fills-4276bddd-88fe-80ec-8006-91a2f52180b1"><path d="M17.127197265625,0.749267578125L11.7322998046875,0.749267578125L3.31103515625,19.07177734375L8.96856689453125,19.07177734375L17.127197265625,0.749267578125Z" style="fill: rgb(0, 91, 143);"/></g></g><g id="shape-4276bddd-88fe-80ec-8006-91a2f52180b2"><g class="fills" id="fills-4276bddd-88fe-80ec-8006-91a2f52180b2"><path d="M8.31121826171875,30.0986328125L13.83758544921875,30.0986328125L8.96856689453125,19.071533203125L3.31103515625,19.071533203125L8.31121826171875,30.0986328125Z" style="fill: rgb(0, 92, 141);"/></g></g><g id="shape-4276bddd-88fe-80ec-8006-91a2f52180b3"><g class="fills" id="fills-4276bddd-88fe-80ec-8006-91a2f52180b3"><path d="M8.83746337890625,31.116943359375L25.28515625,31.116943359375L27.916748046875,37.223876953125L11.600830078125,37.223876953125L8.83746337890625,31.116943359375Z" style="fill: rgb(0, 69, 114);"/></g></g><g id="shape-4276bddd-88fe-80ec-8006-91a2f52180b4"><g class="fills" id="fills-4276bddd-88fe-80ec-8006-91a2f52180b4"><path d="M30.15386962890625,20.08984375L32.9168701171875,26.02734375L27.916748046875,37.224365234375L25.28515625,31.1171875L30.15386962890625,20.08984375Z" style="fill: rgb(85, 143, 204);"/></g></g><g id="shape-4276bddd-88fe-80ec-8006-91a2f52180b5" style="opacity: 0.82;"><g class="fills" id="fills-4276bddd-88fe-80ec-8006-91a2f52180b5"><path d="M15.28485107421875,6.8564453125L25.28515625,6.8564453125L27.916748046875,0.9189453125L17.9163818359375,0.9189453125L15.28485107421875,6.8564453125Z" style="fill: rgb(0, 91, 143);"/></g></g><g id="shape-4276bddd-88fe-80ec-8006-91a2f52180b6"><g class="fills" id="fills-4276bddd-88fe-80ec-8006-91a2f52180b6"><path d="M129.50311279296875,29.685302734375L130.32073974609375,29.5830078125C130.3695068359375,29.93701171875,130.46954345703125,30.19677734375,130.619873046875,30.3623046875C130.77056884765625,30.528076171875,130.9739990234375,30.61083984375,131.22845458984375,30.611572265625C131.4991455078125,30.611572265625,131.7030029296875,30.537841796875,131.84039306640625,30.389892578125C131.97735595703125,30.242431640625,132.04608154296875,30.070068359375,132.04608154296875,29.87353515625C132.04827880859375,29.755615234375,132.01763916015625,29.640869140625,131.95965576171875,29.55029296875C131.90130615234375,29.461181640625,131.80084228515625,29.383056640625,131.6572265625,29.317138671875C131.55859375,29.273681640625,131.33447265625,29.195556640625,130.9847412109375,29.0830078125C130.5345458984375,28.939697265625,130.21844482421875,28.76318359375,130.037109375,28.55322265625C129.915283203125,28.420654296875,129.8177490234375,28.255126953125,129.75164794921875,28.068603515625C129.6859130859375,27.882080078125,129.6519775390625,27.6787109375,129.65380859375,27.4736328125C129.65380859375,27.20068359375,129.71661376953125,26.933837890625,129.83404541015625,26.706787109375C129.960693359375,26.462158203125,130.14166259765625,26.27294921875,130.353271484375,26.163330078125C130.57958984375,26.0390625,130.8521728515625,25.97705078125,131.17156982421875,25.97705078125C131.69451904296875,25.97705078125,132.08740234375,26.124755859375,132.3514404296875,26.419921875C132.615478515625,26.715087890625,132.75360107421875,27.10888671875,132.76727294921875,27.6015625L131.9271240234375,27.64892578125C131.8909912109375,27.373779296875,131.81378173828125,27.175537109375,131.69561767578125,27.054443359375C131.57708740234375,26.93310546875,131.3994140625,26.872802734375,131.16162109375,26.87353515625C130.91754150390625,26.87353515625,130.72662353515625,26.938232421875,130.5885009765625,27.0673828125C130.54638671875,27.10400390625,130.51202392578125,27.154052734375,130.48876953125,27.2119140625C130.46588134765625,27.27001953125,130.45404052734375,27.334716796875,130.45513916015625,27.400146484375C130.45513916015625,27.463134765625,130.46624755859375,27.525390625,130.4884033203125,27.58203125C130.50982666015625,27.638427734375,130.54119873046875,27.687744140625,130.57958984375,27.725830078125C130.68634033203125,27.840576171875,130.943359375,27.960205078125,131.351806640625,28.084716796875C131.7598876953125,28.208740234375,132.06195068359375,28.337646484375,132.2584228515625,28.470458984375C132.44708251953125,28.594970703125,132.60626220703125,28.783447265625,132.7181396484375,29.015380859375C132.8289794921875,29.2451171875,132.88397216796875,29.530029296875,132.88397216796875,29.870361328125C132.88470458984375,30.1767578125,132.815673828125,30.4765625,132.6856689453125,30.7333984375C132.5516357421875,31.003662109375,132.35516357421875,31.213134765625,132.12359619140625,31.331787109375C131.88134765625,31.4619140625,131.58001708984375,31.52685546875,131.2188720703125,31.527587890625C130.6922607421875,31.527587890625,130.28863525390625,31.37060546875,130.0064697265625,31.05712890625C129.7247314453125,30.743408203125,129.55706787109375,30.286376953125,129.50311279296875,29.685302734375Z" style="fill: rgb(28, 28, 27);"/></g></g><g id="shape-4276bddd-88fe-80ec-8006-91a2f52180b7"><g class="fills" id="fills-4276bddd-88fe-80ec-8006-91a2f52180b7"><path d="M136.27294921875,31.4306640625L136.27294921875,26.97412109375L135.03802490234375,26.97412109375L135.03802490234375,26.0673828125L138.34393310546875,26.0673828125L138.34393310546875,26.97412109375L137.1123046875,26.97412109375L137.1123046875,31.4306640625L136.27294921875,31.4306640625Z" style="fill: rgb(28, 28, 27);"/></g></g><g id="shape-4276bddd-88fe-80ec-8006-91a2f52180b8"><g class="fills" id="fills-4276bddd-88fe-80ec-8006-91a2f52180b8"><path d="M140.63275146484375,31.4306640625L140.63275146484375,26.0673828125L142.400146484375,26.0673828125C142.84515380859375,26.0673828125,143.16864013671875,26.115478515625,143.36920166015625,26.2119140625C143.571533203125,26.30859375,143.74139404296875,26.490478515625,143.85296630859375,26.728271484375C143.97552490234375,26.9814453125,144.0386962890625,27.27490234375,144.0350341796875,27.573486328125C144.0350341796875,27.97607421875,143.94305419921875,28.30859375,143.759521484375,28.570556640625C143.57635498046875,28.832275390625,143.30157470703125,28.997802734375,142.9364013671875,29.06689453125C143.1025390625,29.187744140625,143.25433349609375,29.3388671875,143.38653564453125,29.516357421875C143.50469970703125,29.6796875,143.66461181640625,29.969970703125,143.86474609375,30.38720703125L144.3729248046875,31.433349609375L143.36810302734375,31.433349609375L142.760986328125,30.266845703125C142.544921875,29.84912109375,142.396484375,29.586181640625,142.31561279296875,29.47802734375C142.24652099609375,29.378662109375,142.16015625,29.302001953125,142.063720703125,29.2548828125C141.9739990234375,29.216796875,141.83331298828125,29.197509765625,141.64019775390625,29.197509765625L141.46990966796875,29.197509765625L141.46990966796875,31.4345703125L140.63275146484375,31.4306640625ZM141.4725341796875,28.3330078125L142.09552001953125,28.3330078125C142.498046875,28.3330078125,142.750244140625,28.31103515625,142.8514404296875,28.26708984375C142.94744873046875,28.2275390625,143.030517578125,28.14794921875,143.0870361328125,28.040771484375C143.146484375,27.9208984375,143.1763916015625,27.78076171875,143.1719970703125,27.638916015625C143.17755126953125,27.48046875,143.13800048828125,27.32470703125,143.06005859375,27.201904296875C142.97735595703125,27.08544921875,142.865478515625,27.0107421875,142.74359130859375,26.991455078125C142.6756591796875,26.979248046875,142.4718017578125,26.972900390625,142.130615234375,26.972900390625L141.4754638671875,26.972900390625L141.4725341796875,28.3330078125Z" style="fill: rgb(28, 28, 27);"/></g></g><g id="shape-4276bddd-88fe-80ec-8006-91a2f52180b9"><g class="fills" id="fills-4276bddd-88fe-80ec-8006-91a2f52180b9"><path d="M17.05596923828125,12.90869140625L14.4288330078125,19.06689453125L11.08489990234375,19.06689453125L15.3837890625,9.21337890625L17.05596923828125,12.90869140625Z" style="fill: rgb(0, 115, 166);"/></g></g><g id="shape-4276bddd-88fe-80ec-8006-91a2f52180ba"><g class="fills" id="fills-4276bddd-88fe-80ec-8006-91a2f52180ba"><path d="M17.05596923828125,25.225830078125L15.3837890625,28.766357421875L11.08489990234375,19.06689453125L14.4288330078125,19.06689453125L17.05596923828125,25.225830078125Z" style="fill: rgb(0, 92, 141);"/></g></g><g id="shape-4276bddd-88fe-80ec-8006-91a2f52180bb"><g class="fills" id="fills-4276bddd-88fe-80ec-8006-91a2f52180bb"><path d="M36.07501220703125,18.90185546875L33.443115234375,25.178955078125L25.28515625,6.8564453125L27.916748046875,0.9189453125L36.07501220703125,18.90185546875Z" style="fill: rgb(95, 149, 200);"/></g></g><g id="shape-4276bddd-88fe-80ec-8006-91a2f52180bc"><g class="fills" id="fills-4276bddd-88fe-80ec-8006-91a2f52180bc"><path d="M24.10162353515625,9.21337890625L22.54913330078125,12.90869140625L17.05596923828125,12.90869140625L15.3841552734375,9.21337890625L24.10162353515625,9.21337890625Z" style="fill: rgb(0, 115, 166);"/></g></g><g id="shape-4276bddd-88fe-80ec-8006-91a2f52180bd"><g class="fills" id="fills-4276bddd-88fe-80ec-8006-91a2f52180bd"><path d="M59.55364990234375,29.458984375L59.55364990234375,28.554931640625L61.3642578125,28.554931640625L61.3642578125,30.691650390625C61.1881103515625,30.91162109375,60.93328857421875,31.10498046875,60.5994873046875,31.271728515625C60.2763671875,31.43603515625,59.93218994140625,31.52099609375,59.58465576171875,31.522216796875C59.149658203125,31.522216796875,58.7703857421875,31.404296875,58.447265625,31.1689453125C58.1278076171875,30.939697265625,57.87225341796875,30.586181640625,57.717529296875,30.159423828125C57.5535888671875,29.713134765625,57.47052001953125,29.224365234375,57.47381591796875,28.73046875C57.466064453125,28.2119140625,57.55950927734375,27.69873046875,57.7459716796875,27.2392578125C57.92547607421875,26.807861328125,58.20428466796875,26.458984375,58.54364013671875,26.24072265625C58.8106689453125,26.062255859375,59.14263916015625,25.97314453125,59.53961181640625,25.97314453125C60.055908203125,25.97314453125,60.45916748046875,26.113037109375,60.749755859375,26.392333984375C61.0404052734375,26.672119140625,61.227294921875,27.05810546875,61.31109619140625,27.550048828125L60.47576904296875,27.75146484375C60.4244384765625,27.5009765625,60.3077392578125,27.281005859375,60.145263671875,27.1279296875C59.98388671875,26.97509765625,59.7822265625,26.8984375,59.53961181640625,26.8984375C59.17254638671875,26.8984375,58.88079833984375,27.04833984375,58.6644287109375,27.34814453125C58.4476318359375,27.64794921875,58.33941650390625,28.09326171875,58.33905029296875,28.68408203125C58.33905029296875,29.32080078125,58.44873046875,29.798828125,58.66845703125,30.1181640625C58.8878173828125,30.4375,59.17510986328125,30.5966796875,59.53076171875,30.595458984375C59.71246337890625,30.59423828125,59.89190673828125,30.548828125,60.060302734375,30.4619140625C60.22357177734375,30.3828125,60.37713623046875,30.273681640625,60.5159912109375,30.13818359375L60.5159912109375,29.458984375L59.55364990234375,29.458984375Z" style="fill: rgb(28, 28, 27);"/></g></g><g id="shape-4276bddd-88fe-80ec-8006-91a2f52180be"><g class="fills" id="fills-4276bddd-88fe-80ec-8006-91a2f52180be"><path d="M63.8824462890625,31.4306640625L63.8824462890625,26.0673828125L66.96710205078125,26.0673828125L66.96710205078125,26.97412109375L64.72222900390625,26.97412109375L64.72222900390625,28.16357421875L66.8138427734375,28.16357421875L66.8138427734375,29.0673828125L64.72222900390625,29.0673828125L64.72222900390625,30.527099609375L67.046875,30.527099609375L67.046875,31.4306640625L63.8824462890625,31.4306640625Z" style="fill: rgb(28, 28, 27);"/></g></g><g id="shape-4276bddd-88fe-80ec-8006-91a2f52180bf"><g class="fills" id="fills-4276bddd-88fe-80ec-8006-91a2f52180bf"><path d="M69.5103759765625,31.4306640625L69.5103759765625,26.0673828125L70.32763671875,26.0673828125L72.03009033203125,29.649169921875L72.03009033203125,26.0673828125L72.80999755859375,26.0673828125L72.80999755859375,31.4306640625L71.96728515625,31.4306640625L70.29071044921875,27.931396484375L70.29071044921875,31.4306640625L69.5103759765625,31.4306640625Z" style="fill: rgb(28, 28, 27);"/></g></g><g id="shape-4276bddd-88fe-80ec-8006-91a2f52180c0"><g class="fills" id="fills-4276bddd-88fe-80ec-8006-91a2f52180c0"><path d="M24.5787353515625,21.069091796875L22.54913330078125,25.225830078125L24.22052001953125,28.766845703125L27.6837158203125,21.069091796875L24.5787353515625,21.069091796875Z" style="fill: rgb(0, 88, 142);"/></g></g><g id="shape-4276bddd-88fe-80ec-8006-91a2f52180c1"><g class="fills" id="fills-4276bddd-88fe-80ec-8006-91a2f52180c1"><path d="M24.5787353515625,17.37353515625L27.6837158203125,17.37353515625L24.10125732421875,9.21337890625L22.54913330078125,12.90869140625L24.5787353515625,17.37353515625Z" style="fill: rgb(0, 115, 166);"/></g></g><g id="shape-4276bddd-88fe-80ec-8006-91a2f52180c2"><g class="fills" id="fills-4276bddd-88fe-80ec-8006-91a2f52180c2"><path d="M24.2308349609375,28.788818359375L15.3841552734375,28.766357421875L17.05596923828125,25.225830078125L22.54913330078125,25.225830078125L24.2308349609375,28.788818359375Z" style="fill: rgb(0, 67, 109);"/></g></g><g id="shape-4276bddd-88fe-80ec-8006-91a2f52180c3"><g class="fills" id="fills-4276bddd-88fe-80ec-8006-91a2f52180c3"><path d="M48.2940673828125,31.4306640625L48.2940673828125,26.0673828125L49.1341552734375,26.0673828125L49.1341552734375,31.4306640625L48.2940673828125,31.4306640625Z" style="fill: rgb(28, 28, 27);"/></g></g><g id="shape-4276bddd-88fe-80ec-8006-91a2f52180c4"><g class="fills" id="fills-4276bddd-88fe-80ec-8006-91a2f52180c4"><path d="M51.68670654296875,31.4306640625L51.68670654296875,26.0673828125L52.50396728515625,26.0673828125L54.20635986328125,29.649169921875L54.20635986328125,26.0673828125L54.987060546875,26.0673828125L54.987060546875,31.4306640625L54.141357421875,31.4306640625L52.46478271484375,27.931396484375L52.46478271484375,31.4306640625L51.68670654296875,31.4306640625Z" style="fill: rgb(28, 28, 27);"/></g></g><g id="shape-4276bddd-88fe-80ec-8006-91a2f52180c5"><g class="fills" id="fills-4276bddd-88fe-80ec-8006-91a2f52180c5"><path d="M75.41754150390625,31.4306640625L75.41754150390625,26.0673828125L76.256591796875,26.0673828125L76.256591796875,31.4306640625L75.41754150390625,31.4306640625Z" style="fill: rgb(28, 28, 27);"/></g></g><g id="shape-4276bddd-88fe-80ec-8006-91a2f52180c6"><g class="fills" id="fills-4276bddd-88fe-80ec-8006-91a2f52180c6"><path d="M123.78363037109375,31.4306640625L123.78363037109375,26.0673828125L124.600830078125,26.0673828125L126.30438232421875,29.649169921875L126.30438232421875,26.0673828125L127.08502197265625,26.0673828125L127.08502197265625,31.4306640625L126.2412109375,31.4306640625L124.56500244140625,27.931396484375L124.56500244140625,31.4306640625L123.78363037109375,31.4306640625Z" style="fill: rgb(28, 28, 27);"/></g></g><g id="shape-4276bddd-88fe-80ec-8006-91a2f52180c7"><g class="fills" id="fills-4276bddd-88fe-80ec-8006-91a2f52180c7"><path d="M103.78997802734375,31.4306640625L103.78997802734375,29.17333984375L102.26702880859375,26.0673828125L103.25152587890625,26.0673828125L104.22979736328125,28.189697265625L105.189208984375,26.0673828125L106.1571044921875,26.0673828125L104.62713623046875,29.18017578125L104.62713623046875,31.4306640625L103.78997802734375,31.4306640625Z" style="fill: rgb(28, 28, 27);"/></g></g><g id="shape-4276bddd-88fe-80ec-8006-91a2f52180c8"><g class="fills" id="fills-4276bddd-88fe-80ec-8006-91a2f52180c8"><path d="M78.80096435546875,31.4306640625L78.80096435546875,26.0673828125L81.885986328125,26.0673828125L81.885986328125,26.97412109375L79.6407470703125,26.97412109375L79.6407470703125,28.16357421875L81.73236083984375,28.16357421875L81.73236083984375,29.0673828125L79.6407470703125,29.0673828125L79.6407470703125,30.527099609375L81.96575927734375,30.527099609375L81.96575927734375,31.4306640625L78.80096435546875,31.4306640625Z" style="fill: rgb(28, 28, 27);"/></g></g><g id="shape-4276bddd-88fe-80ec-8006-91a2f52180c9"><g class="fills" id="fills-4276bddd-88fe-80ec-8006-91a2f52180c9"><path d="M114.23272705078125,29.458984375L115.0469970703125,29.791748046875C114.92291259765625,30.376953125,114.7149658203125,30.811767578125,114.42437744140625,31.095947265625C114.13372802734375,31.380859375,113.76483154296875,31.522705078125,113.319091796875,31.522216796875C112.7662353515625,31.522216796875,112.312744140625,31.279052734375,111.9571533203125,30.792236328125C111.60113525390625,30.30517578125,111.42315673828125,29.64013671875,111.42315673828125,28.79638671875C111.42315673828125,27.903076171875,111.60186767578125,27.2099609375,111.9593505859375,26.716552734375C112.31683349609375,26.223388671875,112.78729248046875,25.976318359375,113.37005615234375,25.9755859375C113.878173828125,25.9755859375,114.29144287109375,26.16943359375,114.6097412109375,26.55712890625C114.798828125,26.78662109375,114.94097900390625,27.11572265625,115.0355224609375,27.544921875L114.20574951171875,27.801513671875C114.1669921875,27.540771484375,114.05731201171875,27.306640625,113.89666748046875,27.1416015625C113.73565673828125,26.976806640625,113.53399658203125,26.891357421875,113.32904052734375,26.9013671875C113.1868896484375,26.895263671875,113.04541015625,26.9306640625,112.91583251953125,27.004638671875C112.78582763671875,27.0791015625,112.67022705078125,27.18994140625,112.57830810546875,27.329345703125C112.38623046875,27.614990234375,112.28985595703125,28.076904296875,112.29058837890625,28.7158203125C112.29058837890625,29.39453125,112.384765625,29.87744140625,112.57421875,30.16455078125C112.66357421875,30.304443359375,112.7762451171875,30.415771484375,112.90399169921875,30.49072265625C113.03216552734375,30.565673828125,113.17138671875,30.6015625,113.31170654296875,30.5966796875C113.523681640625,30.601806640625,113.7293701171875,30.504150390625,113.88818359375,30.322265625C114.04766845703125,30.1396484375,114.16290283203125,29.851806640625,114.23272705078125,29.458984375Z" style="fill: rgb(28, 28, 27);"/></g></g><g id="shape-4276bddd-88fe-80ec-8006-91a2f52180ca"><g class="fills" id="fills-4276bddd-88fe-80ec-8006-91a2f52180ca"><path d="M84.42376708984375,31.4306640625L84.42376708984375,26.0673828125L86.19189453125,26.0673828125C86.63653564453125,26.0673828125,86.95965576171875,26.115478515625,87.160888671875,26.2119140625C87.3629150390625,26.30908203125,87.53314208984375,26.49072265625,87.6446533203125,26.728271484375C87.76727294921875,26.9814453125,87.830078125,27.27490234375,87.82635498046875,27.573486328125C87.82635498046875,27.97607421875,87.73480224609375,28.30859375,87.5509033203125,28.570556640625C87.36810302734375,28.832275390625,87.09368896484375,28.997802734375,86.72808837890625,29.06689453125C86.894287109375,29.187744140625,87.04608154296875,29.3388671875,87.17828369140625,29.516357421875C87.29681396484375,29.6796875,87.45599365234375,29.969970703125,87.6561279296875,30.38720703125L88.16387939453125,31.433349609375L87.1590576171875,31.433349609375L86.55157470703125,30.266845703125C86.3370361328125,29.84912109375,86.188232421875,29.586181640625,86.10736083984375,29.47802734375C86.03826904296875,29.378662109375,85.95184326171875,29.302001953125,85.8551025390625,29.2548828125C85.7657470703125,29.216796875,85.62506103515625,29.197509765625,85.431884765625,29.197509765625L85.26129150390625,29.197509765625L85.26129150390625,31.4345703125L84.42376708984375,31.4306640625ZM85.26348876953125,28.3330078125L85.886474609375,28.3330078125C86.28973388671875,28.3330078125,86.5416259765625,28.31103515625,86.6431884765625,28.26708984375C86.73846435546875,28.2275390625,86.8218994140625,28.147705078125,86.8780517578125,28.040771484375C86.9375,27.9208984375,86.9674072265625,27.78076171875,86.96405029296875,27.638916015625C86.9696044921875,27.48046875,86.92974853515625,27.32470703125,86.85107421875,27.201904296875C86.76910400390625,27.08544921875,86.65643310546875,27.0107421875,86.53533935546875,26.991455078125C86.4666748046875,26.979248046875,86.2628173828125,26.972900390625,85.92193603515625,26.972900390625L85.26611328125,26.972900390625L85.26348876953125,28.3330078125Z" style="fill: rgb(28, 28, 27);"/></g></g><g id="shape-4276bddd-88fe-80ec-8006-91a2f52180cb"><g class="fills" id="fills-4276bddd-88fe-80ec-8006-91a2f52180cb"><path d="M121.73223876953125,19.7216796875L116.7630615234375,9.71484375L111.71453857421875,19.7216796875L109.6885986328125,19.7216796875L116.09503173828125,7.297119140625L117.4229736328125,7.297119140625L123.78802490234375,19.7216796875L121.73223876953125,19.7216796875Z" style="fill: rgb(28, 28, 27);"/></g><g id="strokes-25544f16-e63f-808b-8006-f4127f0c7162-4276bddd-88fe-80ec-8006-91a2f52180cb" class="strokes"><g class="stroke-shape"><path d="M121.73223876953125,19.7216796875L116.7630615234375,9.71484375L111.71453857421875,19.7216796875L109.6885986328125,19.7216796875L116.09503173828125,7.297119140625L117.4229736328125,7.297119140625L123.78802490234375,19.7216796875L121.73223876953125,19.7216796875Z" style="fill: none; stroke-width: 1; stroke: rgb(28, 28, 27); stroke-opacity: 1;"/></g></g></g><g id="shape-4276bddd-88fe-80ec-8006-91a2f52180cc"><g class="fills" id="fills-4276bddd-88fe-80ec-8006-91a2f52180cc"><path d="M125.5787353515625,19.7216796875L125.5787353515625,17.885986328125L133.95599365234375,17.885986328125C134.75885009765625,17.885986328125,135.159912109375,17.503662109375,135.16064453125,16.739013671875L135.16064453125,15.168212890625C135.16064453125,14.4033203125,134.75885009765625,14.02099609375,133.95599365234375,14.02099609375L128.289306640625,14.02099609375C127.74127197265625,14.02099609375,127.27520751953125,13.94775390625,126.89263916015625,13.801025390625C126.50933837890625,13.654052734375,126.196533203125,13.447998046875,125.95538330078125,13.18310546875C125.72015380859375,12.93115234375,125.538818359375,12.60595703125,125.42767333984375,12.239013671875C125.314697265625,11.849609375,125.25927734375,11.4365234375,125.26336669921875,11.021240234375L125.26336669921875,10.297119140625C125.25927734375,9.881591796875,125.314697265625,9.46875,125.42767333984375,9.079345703125C125.538818359375,8.71240234375,125.72015380859375,8.38720703125,125.95538330078125,8.13525390625C126.196533203125,7.870361328125,126.50897216796875,7.664794921875,126.89263916015625,7.517578125C127.27593994140625,7.370361328125,127.74127197265625,7.296875,128.289306640625,7.297119140625L136.44647216796875,7.297119140625L136.44647216796875,9.132568359375L128.289306640625,9.132568359375C127.4853515625,9.132568359375,127.08392333984375,9.51513671875,127.08428955078125,10.2802734375L127.08428955078125,11.038330078125C127.08428955078125,11.80322265625,127.4857177734375,12.185546875,128.289306640625,12.185546875L133.95599365234375,12.185546875C134.5032958984375,12.185546875,134.9686279296875,12.25927734375,135.3519287109375,12.406494140625C135.7352294921875,12.5537109375,136.04803466796875,12.75927734375,136.2899169921875,13.0244140625C136.5244140625,13.276123046875,136.70574951171875,13.601318359375,136.8165283203125,13.96826171875C136.92913818359375,14.357666015625,136.98492431640625,14.7705078125,136.9808349609375,15.18603515625L136.9808349609375,16.7216796875C136.98492431640625,17.137451171875,136.92987060546875,17.550048828125,136.8165283203125,17.939453125C136.70574951171875,18.306396484375,136.5244140625,18.631591796875,136.2899169921875,18.883544921875C136.04803466796875,19.148193359375,135.7352294921875,19.354248046875,135.3519287109375,19.50146484375C134.9686279296875,19.6484375,134.5032958984375,19.721923828125,133.95599365234375,19.7216796875L125.5787353515625,19.7216796875Z" style="fill: rgb(28, 28, 27);"/></g><g id="strokes-25544f16-e63f-808b-8006-f4127f0cff62-4276bddd-88fe-80ec-8006-91a2f52180cc" class="strokes"><g class="stroke-shape"><path d="M125.5787353515625,19.7216796875L125.5787353515625,17.885986328125L133.95599365234375,17.885986328125C134.75885009765625,17.885986328125,135.159912109375,17.503662109375,135.16064453125,16.739013671875L135.16064453125,15.168212890625C135.16064453125,14.4033203125,134.75885009765625,14.02099609375,133.95599365234375,14.02099609375L128.289306640625,14.02099609375C127.74127197265625,14.02099609375,127.27520751953125,13.94775390625,126.89263916015625,13.801025390625C126.50933837890625,13.654052734375,126.196533203125,13.447998046875,125.95538330078125,13.18310546875C125.72015380859375,12.93115234375,125.538818359375,12.60595703125,125.42767333984375,12.239013671875C125.314697265625,11.849609375,125.25927734375,11.4365234375,125.26336669921875,11.021240234375L125.26336669921875,10.297119140625C125.25927734375,9.881591796875,125.314697265625,9.46875,125.42767333984375,9.079345703125C125.538818359375,8.71240234375,125.72015380859375,8.38720703125,125.95538330078125,8.13525390625C126.196533203125,7.870361328125,126.50897216796875,7.664794921875,126.89263916015625,7.517578125C127.27593994140625,7.370361328125,127.74127197265625,7.296875,128.289306640625,7.297119140625L136.44647216796875,7.297119140625L136.44647216796875,9.132568359375L128.289306640625,9.132568359375C127.4853515625,9.132568359375,127.08392333984375,9.51513671875,127.08428955078125,10.2802734375L127.08428955078125,11.038330078125C127.08428955078125,11.80322265625,127.4857177734375,12.185546875,128.289306640625,12.185546875L133.95599365234375,12.185546875C134.5032958984375,12.185546875,134.9686279296875,12.25927734375,135.3519287109375,12.406494140625C135.7352294921875,12.5537109375,136.04803466796875,12.75927734375,136.2899169921875,13.0244140625C136.5244140625,13.276123046875,136.70574951171875,13.601318359375,136.8165283203125,13.96826171875C136.92913818359375,14.357666015625,136.98492431640625,14.7705078125,136.9808349609375,15.18603515625L136.9808349609375,16.7216796875C136.98492431640625,17.137451171875,136.92987060546875,17.550048828125,136.8165283203125,17.939453125C136.70574951171875,18.306396484375,136.5244140625,18.631591796875,136.2899169921875,18.883544921875C136.04803466796875,19.148193359375,135.7352294921875,19.354248046875,135.3519287109375,19.50146484375C134.9686279296875,19.6484375,134.5032958984375,19.721923828125,133.95599365234375,19.7216796875L125.5787353515625,19.7216796875Z" style="fill: none; stroke-width: 1; stroke: rgb(28, 28, 27); stroke-opacity: 1;"/></g></g></g><g id="shape-4276bddd-88fe-80ec-8006-91a2f52180cd"><g class="fills" id="fills-4276bddd-88fe-80ec-8006-91a2f52180cd"><path d="M139.84173583984375,19.7216796875L139.84173583984375,7.297119140625L149.752685546875,7.297119140625L149.752685546875,9.132568359375L141.662353515625,9.132568359375L141.662353515625,12.239501953125L149.34130859375,12.239501953125L149.34130859375,14.074951171875L141.662353515625,14.074951171875L141.662353515625,17.885986328125L149.752685546875,17.885986328125L149.752685546875,19.7216796875L139.84173583984375,19.7216796875Z" style="fill: rgb(28, 28, 27);"/></g><g id="strokes-25544f16-e63f-808b-8006-f4127f0d4880-4276bddd-88fe-80ec-8006-91a2f52180cd" class="strokes"><g class="stroke-shape"><path d="M139.84173583984375,19.7216796875L139.84173583984375,7.297119140625L149.752685546875,7.297119140625L149.752685546875,9.132568359375L141.662353515625,9.132568359375L141.662353515625,12.239501953125L149.34130859375,12.239501953125L149.34130859375,14.074951171875L141.662353515625,14.074951171875L141.662353515625,17.885986328125L149.752685546875,17.885986328125L149.752685546875,19.7216796875L139.84173583984375,19.7216796875Z" style="fill: none; stroke-width: 1; stroke: rgb(28, 28, 27); stroke-opacity: 1;"/></g></g></g><g id="shape-4276bddd-88fe-80ec-8006-91a2f52180ce"><g class="fills" id="fills-4276bddd-88fe-80ec-8006-91a2f52180ce"><path d="M146.56390380859375,26.0673828125L147.404052734375,26.0673828125L147.404052734375,28.97216796875C147.404052734375,29.43310546875,147.41436767578125,29.73193359375,147.4354248046875,29.86865234375C147.467529296875,30.079833984375,147.55877685546875,30.26806640625,147.69244384765625,30.3974609375C147.82757568359375,30.52978515625,148.01263427734375,30.59619140625,148.24713134765625,30.5966796875C148.48602294921875,30.5966796875,148.6651611328125,30.533935546875,148.78662109375,30.408447265625C148.90185546875,30.294921875,148.98016357421875,30.1298828125,149.0052490234375,29.945556640625C149.03515625,29.643310546875,149.04736328125,29.33837890625,149.04180908203125,29.033935546875L149.04180908203125,26.0673828125L149.8819580078125,26.0673828125L149.8819580078125,28.88427734375C149.8819580078125,29.52880859375,149.85943603515625,29.9833984375,149.81402587890625,30.2490234375C149.77520751953125,30.496826171875,149.68841552734375,30.728515625,149.5621337890625,30.92236328125C149.4288330078125,31.1162109375,149.26116943359375,31.265869140625,149.07318115234375,31.359130859375C148.869384765625,31.467529296875,148.60235595703125,31.52197265625,148.272216796875,31.522216796875C147.8748779296875,31.522216796875,147.57391357421875,31.46337890625,147.36859130859375,31.34521484375C147.18060302734375,31.24365234375,147.0140380859375,31.08642578125,146.8818359375,30.88623046875C146.76922607421875,30.713623046875,146.6883544921875,30.51025390625,146.6458740234375,30.29150390625C146.59197998046875,29.985595703125,146.56390380859375,29.53173828125,146.56390380859375,28.9306640625L146.56390380859375,26.0673828125Z" style="fill: rgb(28, 28, 27);"/></g></g><g id="shape-4276bddd-88fe-80ec-8006-91a2f52180cf"><g class="fills" id="fills-4276bddd-88fe-80ec-8006-91a2f52180cf"><path d="M117.34173583984375,28.781982421875C117.34173583984375,28.23583984375,117.404541015625,27.777099609375,117.53155517578125,27.4052734375C117.625732421875,27.132568359375,117.7572021484375,26.883544921875,117.9189453125,26.669921875C118.07110595703125,26.463134765625,118.25311279296875,26.299072265625,118.45660400390625,26.186767578125C118.7413330078125,26.038818359375,119.0460205078125,25.967041015625,119.3536376953125,25.974609375C119.96624755859375,25.974609375,120.4566650390625,26.2197265625,120.82489013671875,26.7099609375C121.19195556640625,27.2001953125,121.376220703125,27.882080078125,121.376953125,28.755859375C121.376953125,29.621337890625,121.19378662109375,30.298828125,120.82891845703125,30.788330078125C120.46405029296875,31.27783203125,119.97662353515625,31.5224609375,119.3665771484375,31.5224609375C118.74798583984375,31.5224609375,118.2564697265625,31.279052734375,117.8912353515625,30.79248046875C117.5267333984375,30.3056640625,117.34283447265625,29.635498046875,117.34173583984375,28.781982421875ZM118.20697021484375,28.74560546875C118.20697021484375,29.3525390625,118.31591796875,29.81298828125,118.5330810546875,30.126953125C118.6383056640625,30.274658203125,118.76568603515625,30.392822265625,118.90789794921875,30.4736328125C119.0504150390625,30.554443359375,119.20330810546875,30.5966796875,119.35919189453125,30.5966796875C119.5142822265625,30.59716796875,119.66827392578125,30.555908203125,119.810791015625,30.4755859375C119.9530029296875,30.39501953125,120.08074951171875,30.27783203125,120.18597412109375,30.130126953125C120.40093994140625,29.8193359375,120.50799560546875,29.35302734375,120.50799560546875,28.730712890625C120.50799560546875,28.11572265625,120.40460205078125,27.65673828125,120.19671630859375,27.35400390625C119.98876953125,27.05126953125,119.71185302734375,26.89990234375,119.36395263671875,26.900146484375C119.0179443359375,26.900146484375,118.73876953125,27.05322265625,118.52679443359375,27.359130859375C118.314453125,27.6650390625,118.20806884765625,28.127197265625,118.20697021484375,28.74560546875Z" style="fill: rgb(28, 28, 27);"/></g></g><g id="shape-4276bddd-88fe-80ec-8006-91a2f52180d0"><g class="fills" id="fills-4276bddd-88fe-80ec-8006-91a2f52180d0"><path d="M155.17236328125,29.458984375L155.98663330078125,29.791748046875C155.8621826171875,30.376953125,155.6546630859375,30.811767578125,155.364013671875,31.095947265625C155.07305908203125,31.380859375,154.7052001953125,31.522705078125,154.25872802734375,31.522216796875C153.7059326171875,31.522216796875,153.25244140625,31.279052734375,152.89642333984375,30.792236328125C152.54083251953125,30.30517578125,152.36248779296875,29.64013671875,152.36248779296875,28.79638671875C152.36248779296875,27.903076171875,152.54156494140625,27.2099609375,152.8990478515625,26.716552734375C153.25653076171875,26.223388671875,153.72662353515625,25.976318359375,154.3096923828125,25.9755859375C154.818603515625,25.9755859375,155.2318115234375,26.16943359375,155.5494384765625,26.55712890625C155.73846435546875,26.78662109375,155.88067626953125,27.11572265625,155.974853515625,27.544921875L155.1435546875,27.801513671875C155.10479736328125,27.540771484375,154.9951171875,27.306640625,154.8348388671875,27.1416015625C154.673828125,26.976806640625,154.47222900390625,26.891357421875,154.26690673828125,26.9013671875C154.12469482421875,26.895263671875,153.9832763671875,26.9306640625,153.853271484375,27.004638671875C153.7236328125,27.0791015625,153.60845947265625,27.18994140625,153.51611328125,27.329345703125C153.32373046875,27.614990234375,153.22772216796875,28.076904296875,153.22845458984375,28.7158203125C153.22845458984375,29.39453125,153.3226318359375,29.87744140625,153.5120849609375,30.16455078125C153.60107421875,30.304443359375,153.71368408203125,30.415771484375,153.84185791015625,30.49072265625C153.9696044921875,30.565673828125,154.10919189453125,30.6015625,154.24951171875,30.5966796875C154.46185302734375,30.601806640625,154.66790771484375,30.504150390625,154.82562255859375,30.322265625C154.98663330078125,30.1396484375,155.10223388671875,29.851806640625,155.17236328125,29.458984375Z" style="fill: rgb(28, 28, 27);"/></g></g><g id="shape-4276bddd-88fe-80ec-8006-91a2f52180d1"><g class="fills" id="fills-4276bddd-88fe-80ec-8006-91a2f52180d1"><path d="M161.11346435546875,29.458984375L161.927001953125,29.791748046875C161.80218505859375,30.376953125,161.59466552734375,30.811767578125,161.30438232421875,31.095947265625C161.01416015625,31.380859375,160.64556884765625,31.522705078125,160.19952392578125,31.522216796875C159.64703369140625,31.522216796875,159.19281005859375,31.279052734375,158.83721923828125,30.792236328125C158.4815673828125,30.30517578125,158.30322265625,29.64013671875,158.30322265625,28.79638671875C158.30322265625,27.903076171875,158.48193359375,27.2099609375,158.83941650390625,26.716552734375C159.196533203125,26.223388671875,159.6666259765625,25.976318359375,160.24932861328125,25.9755859375C160.75823974609375,25.9755859375,161.17218017578125,26.16943359375,161.49017333984375,26.55712890625C161.67926025390625,26.78662109375,161.8214111328125,27.11572265625,161.91595458984375,27.544921875L161.08392333984375,27.801513671875C161.0462646484375,27.541015625,160.93658447265625,27.30712890625,160.77557373046875,27.141845703125C160.61419677734375,26.97705078125,160.413330078125,26.8916015625,160.2080078125,26.9013671875C160.0657958984375,26.895263671875,159.92474365234375,26.9306640625,159.79473876953125,27.004638671875C159.664794921875,27.0791015625,159.5491943359375,27.18994140625,159.45721435546875,27.329345703125C159.26519775390625,27.614990234375,159.169189453125,28.076904296875,159.169189453125,28.7158203125C159.169189453125,29.39453125,159.26373291015625,29.87744140625,159.45318603515625,30.16455078125C159.54254150390625,30.304443359375,159.6551513671875,30.415771484375,159.7833251953125,30.49072265625C159.91107177734375,30.565673828125,160.0506591796875,30.601806640625,160.19061279296875,30.5966796875C160.402587890625,30.601806640625,160.6082763671875,30.504150390625,160.76708984375,30.322265625C160.9281005859375,30.1396484375,161.043701171875,29.851806640625,161.11346435546875,29.458984375Z" style="fill: rgb(28, 28, 27);"/></g></g><g id="shape-4276bddd-88fe-80ec-8006-91a2f52180d2"><g class="fills" id="fills-4276bddd-88fe-80ec-8006-91a2f52180d2"><path d="M164.3665771484375,31.4306640625L164.3665771484375,26.0673828125L165.206298828125,26.0673828125L165.206298828125,31.4306640625L164.3665771484375,31.4306640625Z" style="fill: rgb(28, 28, 27);"/></g></g><g id="shape-4276bddd-88fe-80ec-8006-91a2f52180d3"><g class="fills" id="fills-4276bddd-88fe-80ec-8006-91a2f52180d3"><path d="M167.580078125,28.78173828125C167.580078125,28.235595703125,167.64288330078125,27.776611328125,167.7698974609375,27.4052734375C167.86407470703125,27.13232421875,167.99554443359375,26.88330078125,168.15728759765625,26.66943359375C168.30908203125,26.463134765625,168.49224853515625,26.299072265625,168.694580078125,26.186767578125C168.97967529296875,26.038818359375,169.28436279296875,25.966796875,169.59197998046875,25.974365234375C170.20465087890625,25.974365234375,170.695068359375,26.2197265625,171.063232421875,26.7099609375C171.431396484375,27.199951171875,171.61529541015625,27.882080078125,171.61456298828125,28.755859375C171.61456298828125,29.621337890625,171.4324951171875,30.298828125,171.0672607421875,30.787841796875C170.70245361328125,31.27783203125,170.2138671875,31.522216796875,169.60302734375,31.52197265625C168.9844970703125,31.52197265625,168.49224853515625,31.2783203125,168.12738037109375,30.791748046875C167.76251220703125,30.304443359375,167.580078125,29.634765625,167.580078125,28.78173828125ZM168.4449462890625,28.74560546875C168.4449462890625,29.3525390625,168.55389404296875,29.812744140625,168.77142333984375,30.126708984375C168.87664794921875,30.274658203125,169.00408935546875,30.392333984375,169.1458740234375,30.4736328125C169.28802490234375,30.554443359375,169.441650390625,30.596435546875,169.59716796875,30.5966796875C169.75299072265625,30.596923828125,169.90625,30.5556640625,170.04913330078125,30.4755859375C170.19134521484375,30.39501953125,170.319091796875,30.277587890625,170.42437744140625,30.130126953125C170.6392822265625,29.8193359375,170.74676513671875,29.35302734375,170.74676513671875,28.73046875C170.74676513671875,28.11572265625,170.642578125,27.65673828125,170.43505859375,27.35400390625C170.2271728515625,27.05126953125,169.9498291015625,26.89990234375,169.6015625,26.900146484375C169.25555419921875,26.900146484375,168.97674560546875,27.052978515625,168.7647705078125,27.35888671875C168.55352783203125,27.6650390625,168.44610595703125,28.127197265625,168.4449462890625,28.74560546875ZM169.08050537109375,25.760009765625L169.47235107421875,24.666015625L170.36639404296875,24.666015625L169.585693359375,25.760009765625L169.08050537109375,25.760009765625Z" style="fill: rgb(28, 28, 27);"/></g></g><g id="shape-4276bddd-88fe-80ec-8006-91a2f52180d4"><g class="fills" id="fills-4276bddd-88fe-80ec-8006-91a2f52180d4"><path d="M174.022705078125,31.4306640625L174.022705078125,26.0673828125L174.83990478515625,26.0673828125L176.542724609375,29.649169921875L176.542724609375,26.0673828125L177.32305908203125,26.0673828125L177.32305908203125,31.4306640625L176.48028564453125,31.4306640625L174.802978515625,27.931396484375L174.802978515625,31.4306640625L174.022705078125,31.4306640625Z" style="fill: rgb(28, 28, 27);"/></g></g><g id="shape-4276bddd-88fe-80ec-8006-91a2f52180d5"><g class="fills" id="fills-4276bddd-88fe-80ec-8006-91a2f52180d5"><path d="M90.23931884765625,25.760009765625L90.631103515625,24.666015625L91.525146484375,24.666015625L90.7445068359375,25.760009765625L90.23931884765625,25.760009765625ZM90.33642578125,31.4306640625L90.33642578125,26.067626953125L91.17620849609375,26.067626953125L91.17620849609375,31.4306640625L90.33642578125,31.4306640625Z" style="fill: rgb(28, 28, 27);"/></g></g><g id="shape-4276bddd-88fe-80ec-8006-91a2f52180d6"><g class="fills" id="fills-4276bddd-88fe-80ec-8006-91a2f52180d6"><path d="M97.471435546875,31.4306640625L96.55706787109375,31.4306640625L96.194091796875,30.212158203125L94.53118896484375,30.212158203125L94.1884765625,31.4306640625L93.298095703125,31.4306640625L94.9189453125,26.0673828125L95.80853271484375,26.0673828125L97.471435546875,31.4306640625ZM95.92486572265625,29.308349609375L95.35174560546875,27.317626953125L94.7896728515625,29.308349609375L95.92486572265625,29.308349609375Z" style="fill: rgb(28, 28, 27);"/></g></g><g id="shape-4276bddd-88fe-80ec-8006-91a2f52180d7"><g class="fills" id="fills-4276bddd-88fe-80ec-8006-91a2f52180d7"><path d="M89.167236328125,19.7216796875L78.88739013671875,10.050048828125L78.88739013671875,19.7216796875L77.2998046875,19.7216796875L77.2998046875,7.297119140625L78.87371826171875,7.297119140625L88.46893310546875,16.52734375L88.46893310546875,7.297119140625L90.0576171875,7.297119140625L90.0576171875,19.7216796875L89.167236328125,19.7216796875Z" style="fill: rgb(28, 28, 27);"/></g><g id="strokes-25544f16-e63f-808b-8006-f4127f0f853f-4276bddd-88fe-80ec-8006-91a2f52180d7" class="strokes"><g class="stroke-shape"><path d="M89.167236328125,19.7216796875L78.88739013671875,10.050048828125L78.88739013671875,19.7216796875L77.2998046875,19.7216796875L77.2998046875,7.297119140625L78.87371826171875,7.297119140625L88.46893310546875,16.52734375L88.46893310546875,7.297119140625L90.0576171875,7.297119140625L90.0576171875,19.7216796875L89.167236328125,19.7216796875Z" style="fill: none; stroke-width: 1; stroke: rgb(28, 28, 27); stroke-opacity: 1;"/></g></g></g><g id="shape-4276bddd-88fe-80ec-8006-91a2f52180d8"><g class="fills" id="fills-4276bddd-88fe-80ec-8006-91a2f52180d8"><path d="M95.0260009765625,14.603271484375L95.0260009765625,19.7216796875L93.2069091796875,19.7216796875L93.2069091796875,7.297119140625L103.11749267578125,7.297119140625L103.11749267578125,9.132568359375L95.0260009765625,9.132568359375L95.0260009765625,12.76904296875L102.568359375,12.76904296875L102.568359375,14.6044921875L95.0260009765625,14.603271484375Z" style="fill: rgb(28, 28, 27);"/></g><g id="strokes-25544f16-e63f-808b-8006-f4127f1328a7-4276bddd-88fe-80ec-8006-91a2f52180d8" class="strokes"><g class="stroke-shape"><path d="M95.0260009765625,14.603271484375L95.0260009765625,19.7216796875L93.2069091796875,19.7216796875L93.2069091796875,7.297119140625L103.11749267578125,7.297119140625L103.11749267578125,9.132568359375L95.0260009765625,9.132568359375L95.0260009765625,12.76904296875L102.568359375,12.76904296875L102.568359375,14.6044921875L95.0260009765625,14.603271484375Z" style="fill: none; stroke-width: 1; stroke: rgb(28, 28, 27); stroke-opacity: 1;"/></g></g></g><g id="shape-4276bddd-88fe-80ec-8006-91a2f52180d9"><g class="fills" id="fills-4276bddd-88fe-80ec-8006-91a2f52180d9"><path d="M51.20849609375,19.7216796875C50.66119384765625,19.7216796875,50.19549560546875,19.648193359375,49.81219482421875,19.50146484375C49.42852783203125,19.354736328125,49.1160888671875,19.148681640625,48.87493896484375,18.883544921875C48.63970947265625,18.631591796875,48.4583740234375,18.306884765625,48.34759521484375,17.939453125C48.234619140625,17.550048828125,48.17919921875,17.137451171875,48.18365478515625,16.7216796875L48.18365478515625,10.297119140625C48.17919921875,9.881591796875,48.234619140625,9.46875,48.34759521484375,9.079345703125C48.4583740234375,8.71240234375,48.63970947265625,8.38720703125,48.87493896484375,8.13525390625C49.1160888671875,7.870361328125,49.42852783203125,7.664794921875,49.81219482421875,7.517578125C50.19549560546875,7.370361328125,50.66119384765625,7.296875,51.20849609375,7.297119140625L58.96978759765625,7.297119140625L58.96978759765625,9.132568359375L51.20849609375,9.132568359375C50.4052734375,9.132568359375,50.00384521484375,9.51513671875,50.00384521484375,10.2802734375L50.00384521484375,16.739501953125C50.00384521484375,17.504150390625,50.4056396484375,17.88671875,51.20849609375,17.88671875L58.96978759765625,17.88671875L58.96978759765625,19.72216796875L51.20849609375,19.7216796875Z" style="fill: rgb(28, 28, 27);"/></g><g id="strokes-25544f16-e63f-808b-8006-f4127f13b884-4276bddd-88fe-80ec-8006-91a2f52180d9" class="strokes"><g class="stroke-shape"><path d="M51.20849609375,19.7216796875C50.66119384765625,19.7216796875,50.19549560546875,19.648193359375,49.81219482421875,19.50146484375C49.42852783203125,19.354736328125,49.1160888671875,19.148681640625,48.87493896484375,18.883544921875C48.63970947265625,18.631591796875,48.4583740234375,18.306884765625,48.34759521484375,17.939453125C48.234619140625,17.550048828125,48.17919921875,17.137451171875,48.18365478515625,16.7216796875L48.18365478515625,10.297119140625C48.17919921875,9.881591796875,48.234619140625,9.46875,48.34759521484375,9.079345703125C48.4583740234375,8.71240234375,48.63970947265625,8.38720703125,48.87493896484375,8.13525390625C49.1160888671875,7.870361328125,49.42852783203125,7.664794921875,49.81219482421875,7.517578125C50.19549560546875,7.370361328125,50.66119384765625,7.296875,51.20849609375,7.297119140625L58.96978759765625,7.297119140625L58.96978759765625,9.132568359375L51.20849609375,9.132568359375C50.4052734375,9.132568359375,50.00384521484375,9.51513671875,50.00384521484375,10.2802734375L50.00384521484375,16.739501953125C50.00384521484375,17.504150390625,50.4056396484375,17.88671875,51.20849609375,17.88671875L58.96978759765625,17.88671875L58.96978759765625,19.72216796875L51.20849609375,19.7216796875Z" style="fill: none; stroke-width: 1; stroke: rgb(28, 28, 27); stroke-opacity: 1;"/></g></g></g><g id="shape-4276bddd-88fe-80ec-8006-91a2f52180da"><g class="fills" id="fills-4276bddd-88fe-80ec-8006-91a2f52180da"><path d="M64.82928466796875,19.7216796875C64.28204345703125,19.7216796875,63.81671142578125,19.648193359375,63.43267822265625,19.50146484375C63.0496826171875,19.354736328125,62.7373046875,19.148681640625,62.49542236328125,18.883544921875C62.26092529296875,18.631591796875,62.0792236328125,18.306884765625,61.96844482421875,17.939453125C61.85577392578125,17.550048828125,61.800048828125,17.137451171875,61.804443359375,16.7216796875L61.804443359375,10.297119140625C61.800048828125,9.881591796875,61.85577392578125,9.46875,61.96844482421875,9.079345703125C62.07958984375,8.71240234375,62.26092529296875,8.38720703125,62.49542236328125,8.13525390625C62.7373046875,7.870361328125,63.050048828125,7.664794921875,63.43267822265625,7.517578125C63.81597900390625,7.370361328125,64.28131103515625,7.296875,64.82928466796875,7.297119140625L71.1943359375,7.297119140625C71.74163818359375,7.297119140625,72.20770263671875,7.37060546875,72.59063720703125,7.517578125C72.97393798828125,7.664306640625,73.287109375,7.870361328125,73.52825927734375,8.13525390625C73.76312255859375,8.38818359375,73.9444580078125,8.71337890625,74.05560302734375,9.0810546875C74.168212890625,9.470458984375,74.2236328125,9.883544921875,74.21954345703125,10.298828125L74.21954345703125,16.723388671875C74.2236328125,17.138916015625,74.1685791015625,17.552001953125,74.05560302734375,17.941162109375C73.9444580078125,18.30859375,73.76312255859375,18.63330078125,73.52825927734375,18.88525390625C73.286376953125,19.14990234375,72.97393798828125,19.35595703125,72.59063720703125,19.503173828125C72.20770263671875,19.650390625,71.74237060546875,19.7236328125,71.1943359375,19.723388671875L64.82928466796875,19.7216796875ZM72.39898681640625,10.2802734375C72.39898681640625,9.51513671875,71.99755859375,9.132568359375,71.1943359375,9.132568359375L64.82928466796875,9.132568359375C64.026123046875,9.132568359375,63.62432861328125,9.51513671875,63.62506103515625,10.2802734375L63.62506103515625,16.739501953125C63.62506103515625,17.504150390625,64.026123046875,17.88671875,64.82928466796875,17.88671875L71.1943359375,17.88671875C71.99755859375,17.88671875,72.39898681640625,17.504150390625,72.39898681640625,16.739501953125L72.39898681640625,10.2802734375Z" style="fill: rgb(28, 28, 27);"/></g><g id="strokes-25544f16-e63f-808b-8006-f4127f13d35f-4276bddd-88fe-80ec-8006-91a2f52180da" class="strokes"><g class="stroke-shape"><path d="M64.82928466796875,19.7216796875C64.28204345703125,19.7216796875,63.81671142578125,19.648193359375,63.43267822265625,19.50146484375C63.0496826171875,19.354736328125,62.7373046875,19.148681640625,62.49542236328125,18.883544921875C62.26092529296875,18.631591796875,62.0792236328125,18.306884765625,61.96844482421875,17.939453125C61.85577392578125,17.550048828125,61.800048828125,17.137451171875,61.804443359375,16.7216796875L61.804443359375,10.297119140625C61.800048828125,9.881591796875,61.85577392578125,9.46875,61.96844482421875,9.079345703125C62.07958984375,8.71240234375,62.26092529296875,8.38720703125,62.49542236328125,8.13525390625C62.7373046875,7.870361328125,63.050048828125,7.664794921875,63.43267822265625,7.517578125C63.81597900390625,7.370361328125,64.28131103515625,7.296875,64.82928466796875,7.297119140625L71.1943359375,7.297119140625C71.74163818359375,7.297119140625,72.20770263671875,7.37060546875,72.59063720703125,7.517578125C72.97393798828125,7.664306640625,73.287109375,7.870361328125,73.52825927734375,8.13525390625C73.76312255859375,8.38818359375,73.9444580078125,8.71337890625,74.05560302734375,9.0810546875C74.168212890625,9.470458984375,74.2236328125,9.883544921875,74.21954345703125,10.298828125L74.21954345703125,16.723388671875C74.2236328125,17.138916015625,74.1685791015625,17.552001953125,74.05560302734375,17.941162109375C73.9444580078125,18.30859375,73.76312255859375,18.63330078125,73.52825927734375,18.88525390625C73.286376953125,19.14990234375,72.97393798828125,19.35595703125,72.59063720703125,19.503173828125C72.20770263671875,19.650390625,71.74237060546875,19.7236328125,71.1943359375,19.723388671875L64.82928466796875,19.7216796875ZM72.39898681640625,10.2802734375C72.39898681640625,9.51513671875,71.99755859375,9.132568359375,71.1943359375,9.132568359375L64.82928466796875,9.132568359375C64.026123046875,9.132568359375,63.62432861328125,9.51513671875,63.62506103515625,10.2802734375L63.62506103515625,16.739501953125C63.62506103515625,17.504150390625,64.026123046875,17.88671875,64.82928466796875,17.88671875L71.1943359375,17.88671875C71.99755859375,17.88671875,72.39898681640625,17.504150390625,72.39898681640625,16.739501953125L72.39898681640625,10.2802734375Z" style="fill: none; stroke-width: 1; stroke: rgb(28, 28, 27); stroke-opacity: 1;"/></g></g></g><g id="shape-4276bddd-88fe-80ec-8006-91a2f52180db"><g class="fills" id="fills-4276bddd-88fe-80ec-8006-91a2f52180db"><path d="M105.5389404296875,19.7216796875L105.5389404296875,7.297119140625L107.3587646484375,7.297119140625L107.3587646484375,19.7216796875L105.5389404296875,19.7216796875Z" style="fill: rgb(28, 28, 27);"/></g><g id="strokes-25544f16-e63f-808b-8006-f4127f143354-4276bddd-88fe-80ec-8006-91a2f52180db" class="strokes"><g class="stroke-shape"><path d="M105.5389404296875,19.7216796875L105.5389404296875,7.297119140625L107.3587646484375,7.297119140625L107.3587646484375,19.7216796875L105.5389404296875,19.7216796875Z" style="fill: none; stroke-width: 1; stroke: rgb(28, 28, 27); stroke-opacity: 1;"/></g></g></g><g id="shape-4276bddd-88fe-80ec-8006-91a2f52180dc"><g class="fills" id="fills-4276bddd-88fe-80ec-8006-91a2f52180dc"><path d="M161.82470703125,19.7216796875L159.56689453125,14.18017578125L154.48846435546875,14.18017578125L154.48846435546875,19.7216796875L152.66748046875,19.7216796875L152.66748046875,7.297119140625L160.8538818359375,7.297119140625C161.40191650390625,7.297119140625,161.8671875,7.37060546875,162.24981689453125,7.517578125C162.63311767578125,7.664306640625,162.9459228515625,7.870361328125,163.18817138671875,8.13525390625C163.42303466796875,8.38818359375,163.60357666015625,8.713623046875,163.71435546875,9.0810546875C163.827392578125,9.470458984375,163.883544921875,9.883544921875,163.87908935546875,10.298828125L163.87908935546875,11.181884765625C163.87908935546875,11.982177734375,163.6959228515625,12.64990234375,163.3310546875,13.184814453125C162.9661865234375,13.7197265625,162.35504150390625,14.039794921875,161.4979248046875,14.14501953125L163.766845703125,19.7216796875L161.82470703125,19.7216796875ZM162.057373046875,10.2802734375C162.057373046875,9.51513671875,161.65673828125,9.132568359375,160.8531494140625,9.132568359375L154.48846435546875,9.132568359375L154.48846435546875,12.344970703125L160.8531494140625,12.344970703125C161.65673828125,12.344970703125,162.057373046875,11.962646484375,162.057373046875,11.19775390625L162.057373046875,10.2802734375Z" style="fill: rgb(28, 28, 27);"/></g><g id="strokes-25544f16-e63f-808b-8006-f4127f14b8f1-4276bddd-88fe-80ec-8006-91a2f52180dc" class="strokes"><g class="stroke-shape"><path d="M161.82470703125,19.7216796875L159.56689453125,14.18017578125L154.48846435546875,14.18017578125L154.48846435546875,19.7216796875L152.66748046875,19.7216796875L152.66748046875,7.297119140625L160.8538818359375,7.297119140625C161.40191650390625,7.297119140625,161.8671875,7.37060546875,162.24981689453125,7.517578125C162.63311767578125,7.664306640625,162.9459228515625,7.870361328125,163.18817138671875,8.13525390625C163.42303466796875,8.38818359375,163.60357666015625,8.713623046875,163.71435546875,9.0810546875C163.827392578125,9.470458984375,163.883544921875,9.883544921875,163.87908935546875,10.298828125L163.87908935546875,11.181884765625C163.87908935546875,11.982177734375,163.6959228515625,12.64990234375,163.3310546875,13.184814453125C162.9661865234375,13.7197265625,162.35504150390625,14.039794921875,161.4979248046875,14.14501953125L163.766845703125,19.7216796875L161.82470703125,19.7216796875ZM162.057373046875,10.2802734375C162.057373046875,9.51513671875,161.65673828125,9.132568359375,160.8531494140625,9.132568359375L154.48846435546875,9.132568359375L154.48846435546875,12.344970703125L160.8531494140625,12.344970703125C161.65673828125,12.344970703125,162.057373046875,11.962646484375,162.057373046875,11.19775390625L162.057373046875,10.2802734375Z" style="fill: none; stroke-width: 1; stroke: rgb(28, 28, 27); stroke-opacity: 1;"/></g></g></g><g id="shape-4276bddd-88fe-80ec-8006-91a2f52180dd"><g class="fills" id="fills-4276bddd-88fe-80ec-8006-91a2f52180dd"><path d="M171.6947021484375,19.7216796875L165.28826904296875,7.297119140625L167.355224609375,7.297119140625L172.39300537109375,17.3037109375L177.3751220703125,7.297119140625L179.3876953125,7.297119140625L173.02117919921875,19.7216796875L171.6947021484375,19.7216796875Z" style="fill: rgb(28, 28, 27);"/></g><g id="strokes-25544f16-e63f-808b-8006-f4127f14f7cd-4276bddd-88fe-80ec-8006-91a2f52180dd" class="strokes"><g class="stroke-shape"><path d="M171.6947021484375,19.7216796875L165.28826904296875,7.297119140625L167.355224609375,7.297119140625L172.39300537109375,17.3037109375L177.3751220703125,7.297119140625L179.3876953125,7.297119140625L173.02117919921875,19.7216796875L171.6947021484375,19.7216796875Z" style="fill: none; stroke-width: 1; stroke: rgb(28, 28, 27); stroke-opacity: 1;"/></g></g></g></g></svg>