<svg width="180" xmlns="http://www.w3.org/2000/svg" height="72" id="screenshot-4276bddd-88fe-80ec-8006-91a17ed7f786" viewBox="0 0 180 72" xmlns:xlink="http://www.w3.org/1999/xlink" fill="none" version="1.1"><g id="shape-4276bddd-88fe-80ec-8006-91a17ed7f786" version="1.1" x="0" y="0" xml:space="preserve" rx="0" ry="0" style="fill: rgb(0, 0, 0);"><g id="shape-4276bddd-88fe-80ec-8006-91a17ed84599" style="display: none;"><g class="fills" id="fills-4276bddd-88fe-80ec-8006-91a17ed84599"><rect width="180" height="72" x="0" transform="matrix(1.000000, 0.000000, 0.000000, 1.000000, 0.000000, 0.000000)" style="fill: none;" ry="0" fill="none" rx="0" y="0"/></g></g><g id="shape-4276bddd-88fe-80ec-8006-91a17ed8459a"><style>#shape-4276bddd-88fe-80ec-8006-91a17ed7f786{ .st0{fill:#AAD63E;} }</style></g><g id="shape-4276bddd-88fe-80ec-8006-91a17ed892a0"><g class="fills" id="fills-4276bddd-88fe-80ec-8006-91a17ed892a0"><path d="M18,18.48974609375C18.84375,14.63037109375,19.63134765625,11.23193359375,22.5,8.35205078125C24.46875,6.3935546875,27.056396484375,5.24169921875,29.8125,5.24169921875C29.8125,5.24169921875,30.88134765625,5.24169921875,31.556396484375,5.356689453125L31.331298828125,6.796875C31.331298828125,6.796875,29.868896484375,6.56640625,28.96875,6.796875C27.787353515625,7.0849609375,27.112548828125,7.603271484375,26.268798828125,8.40966796875C24.75,9.96484375,24.243896484375,11.750244140625,23.287353515625,15.955322265625L20.25,29.89453125L27.84375,29.89453125L27.393798828125,31.73779296875L19.7998046875,31.73779296875L15.018798828125,53.39501953125C14.1748046875,57.25439453125,13.387451171875,60.65283203125,10.518798828125,63.53271484375C8.5498046875,65.4912109375,5.962646484375,66.643310546875,3.150146484375,66.643310546875L2.193603515625,66.643310546875L2.7001953125,65.030517578125C2.981201171875,65.030517578125,3.31884765625,65.030517578125,3.543701171875,64.97265625C5.0625,64.742431640625,6.074951171875,64.223876953125,6.9189453125,63.07177734375C8.3251953125,61.228759765625,8.66259765625,60.076904296875,9.675048828125,55.9296875L14.96240234375,31.795166015625L7.53759765625,31.795166015625L7.987548828125,29.9521484375L15.41259765625,29.9521484375L18,18.48974609375Z" class="st0"/></g></g><g id="shape-4276bddd-88fe-80ec-8006-91a17ed892a1"><g class="fills" id="fills-4276bddd-88fe-80ec-8006-91a17ed892a1"><path d="M121.16259765625,38.764892578125L110.362548828125,38.764892578125C111.09375,35.9423828125,113.34375,31.44970703125,117.337646484375,31.44970703125C121.668701171875,31.39208984375,121.78125,35.884765625,121.16259765625,38.764892578125M117.731201171875,29.1455078125C112.050048828125,29.1455078125,106.9873046875,33.062255859375,105.806396484375,39.225830078125C103.78125,49.708740234375,111.375,51.667236328125,114.581298828125,51.667236328125C117.337646484375,51.667236328125,119.47509765625,50.68798828125,121.106201171875,49.420654296875L119.6435546875,47.69287109375C118.462646484375,48.441650390625,117.168701171875,48.9599609375,115.650146484375,48.9599609375C110.362548828125,48.9599609375,109.63134765625,44.35205078125,109.91259765625,41.126220703125L125.10009765625,41.126220703125C126.6748046875,35.9423828125,124.987548828125,29.1455078125,117.731201171875,29.1455078125" class="st0"/></g></g><g id="shape-4276bddd-88fe-80ec-8006-91a17ed892a2"><g class="fills" id="fills-4276bddd-88fe-80ec-8006-91a17ed892a2"><path d="M55.518798828125,13.420654296875C55.518798828125,13.420654296875,49.16259765625,41.414306640625,48.599853515625,44.755126953125C47.75634765625,49.939208984375,50.39990234375,50.68798828125,51.80615234375,50.91845703125C54.393798828125,51.321533203125,56.081298828125,50.86083984375,56.081298828125,50.86083984375L56.3623046875,49.1328125C56.3623046875,49.1328125,55.40625,49.478515625,54.224853515625,49.248046875C52.59375,48.9599609375,52.368896484375,47.980712890625,52.762451171875,45.158447265625C53.268798828125,41.875,59.96240234375,13.363037109375,59.96240234375,13.363037109375L55.518798828125,13.363037109375Z" class="st0"/></g></g><g id="shape-4276bddd-88fe-80ec-8006-91a17ed8f51f"><g class="fills" id="fills-4276bddd-88fe-80ec-8006-91a17ed8f51f"><path d="M134.268798828125,13.420654296875C134.268798828125,13.420654296875,127.91259765625,41.414306640625,127.349853515625,44.755126953125C126.50634765625,49.939208984375,129.14990234375,50.68798828125,130.55615234375,50.91845703125C133.143798828125,51.321533203125,134.831298828125,50.86083984375,134.831298828125,50.86083984375L135.1123046875,49.1328125C135.1123046875,49.1328125,134.15625,49.478515625,132.974853515625,49.248046875C131.34375,48.9599609375,131.118896484375,47.980712890625,131.512451171875,45.158447265625C132.018798828125,41.875,138.71240234375,13.363037109375,138.71240234375,13.363037109375L134.268798828125,13.363037109375Z" class="st0"/></g></g><g id="shape-4276bddd-88fe-80ec-8006-91a17ed8f520"><g class="fills" id="fills-4276bddd-88fe-80ec-8006-91a17ed8f520"><path d="M144,13.420654296875C144,13.420654296875,137.643798828125,41.414306640625,137.081298828125,44.755126953125C136.237548828125,49.939208984375,138.824951171875,50.68798828125,140.287353515625,50.91845703125C142.875,51.321533203125,144.5625,50.86083984375,144.5625,50.86083984375L144.84375,49.1328125C144.84375,49.1328125,143.887451171875,49.478515625,142.706298828125,49.248046875C141.074951171875,48.9599609375,140.85009765625,47.980712890625,141.243896484375,45.158447265625C141.75,41.875,148.443603515625,13.363037109375,148.443603515625,13.363037109375L144,13.363037109375Z" class="st0"/></g></g><g id="shape-4276bddd-88fe-80ec-8006-91a17ed8f521"><g class="fills" id="fills-4276bddd-88fe-80ec-8006-91a17ed8f521"><path d="M40.331298828125,41.817626953125C39.824951171875,43.545654296875,37.800048828125,49.651123046875,33.018798828125,49.651123046875C27.337646484375,49.651123046875,30.09375,40.83837890625,30.543701171875,39.1103515625C30.99365234375,37.440185546875,33.074951171875,31.21923828125,37.6875,31.21923828125C43.256103515625,31.21923828125,40.83740234375,40.08984375,40.331298828125,41.817626953125M42.862548828125,29.721435546875L42.356201171875,31.91015625L42.1875,31.91015625C41.0625,29.721435546875,38.981201171875,29.088134765625,36.84375,29.088134765625C30.375,29.088134765625,26.66259765625,34.559814453125,25.59375,39.8017578125C24.0185546875,47.289794921875,26.268798828125,51.609619140625,32.34375,51.609619140625C34.987548828125,51.609619140625,37.012451171875,50.91845703125,39.60009765625,48.4990234375L40.72509765625,50.91845703125L42.862548828125,50.91845703125L47.362548828125,29.721435546875L42.862548828125,29.721435546875Z" class="st0"/></g></g><g id="shape-4276bddd-88fe-80ec-8006-91a17ed8f522"><g class="fills" id="fills-4276bddd-88fe-80ec-8006-91a17ed8f522"><path d="M74.4189453125,41.817626953125C73.912353515625,43.545654296875,71.887451171875,49.651123046875,67.106201171875,49.651123046875C61.425048828125,49.651123046875,64.18115234375,40.83837890625,64.63134765625,39.1103515625C65.081298828125,37.440185546875,67.162353515625,31.16162109375,71.71875,31.16162109375C77.34375,31.21923828125,74.925048828125,40.08984375,74.4189453125,41.817626953125M76.949951171875,29.721435546875L76.44384765625,31.91015625L76.331298828125,31.91015625C75.206298828125,29.721435546875,73.125,29.088134765625,70.987548828125,29.088134765625C64.518798828125,29.088134765625,60.806396484375,34.559814453125,59.737548828125,39.8017578125C58.16259765625,47.289794921875,60.41259765625,51.609619140625,66.487548828125,51.609619140625C69.13134765625,51.609619140625,71.15625,50.91845703125,73.743896484375,48.4990234375L74.868896484375,50.91845703125L77.006103515625,50.91845703125L81.50634765625,29.721435546875L76.949951171875,29.721435546875Z" class="st0"/></g></g><g id="shape-4276bddd-88fe-80ec-8006-91a17ed8f523"><g class="fills" id="fills-4276bddd-88fe-80ec-8006-91a17ed8f523"><path d="M162.449951171875,41.817626953125C161.94384765625,43.545654296875,159.918701171875,49.651123046875,155.137451171875,49.651123046875C149.456298828125,49.651123046875,152.212646484375,40.83837890625,152.662353515625,39.1103515625C153.112548828125,37.440185546875,155.137451171875,31.16162109375,159.75,31.16162109375C165.375,31.21923828125,162.956298828125,40.08984375,162.449951171875,41.817626953125M164.981201171875,29.721435546875L164.47509765625,31.91015625L164.362548828125,31.91015625C163.18115234375,29.721435546875,161.15625,29.088134765625,159.0185546875,29.088134765625C152.550048828125,29.088134765625,148.893798828125,34.559814453125,147.7685546875,39.8017578125C146.19384765625,47.289794921875,148.443603515625,51.609619140625,154.518798828125,51.609619140625C157.162353515625,51.609619140625,159.1875,50.91845703125,161.77490234375,48.4990234375L162.89990234375,50.91845703125L165.03759765625,50.91845703125L169.537353515625,29.721435546875L164.981201171875,29.721435546875Z" class="st0"/></g></g><g id="shape-4276bddd-88fe-80ec-8006-91a17ed917b0"><g class="fills" id="fills-4276bddd-88fe-80ec-8006-91a17ed917b0"><path d="M97.987548828125,42.0478515625C97.53759765625,43.776123046875,95.5126953125,49.881591796875,91.237548828125,49.881591796875C86.118896484375,49.881591796875,87.806396484375,41.06884765625,88.256103515625,39.3408203125C88.931396484375,36.576171875,90.449951171875,31.56494140625,94.668701171875,31.56494140625C100.40625,31.56494140625,98.4375,40.26220703125,97.987548828125,42.0478515625M96.356201171875,29.2607421875C93.824951171875,29.2607421875,91.18115234375,30.412841796875,89.831298828125,32.37109375L89.662353515625,32.37109375L93.881103515625,13.478515625L89.15625,13.478515625C89.15625,13.478515625,82.574951171875,42.623779296875,80.775146484375,51.14892578125L83.418701171875,51.14892578125L85.55615234375,48.729736328125C87.13134765625,51.14892578125,88.81884765625,51.840087890625,91.5185546875,51.840087890625C97.59375,51.840087890625,101.587646484375,47.52001953125,103.16259765625,40.031982421875C104.28759765625,34.73291015625,102.824951171875,29.2607421875,96.356201171875,29.2607421875" class="st0"/></g></g><g id="shape-4276bddd-88fe-80ec-8006-91a17ed917b1"><g class="fills" id="fills-4276bddd-88fe-80ec-8006-91a17ed917b1"><path d="M172.012451171875,47.750244140625C172.012451171875,46.1376953125,173.306396484375,44.812744140625,174.88134765625,44.812744140625C176.456298828125,44.812744140625,177.75,46.1376953125,177.75,47.750244140625C177.75,49.363037109375,176.456298828125,50.68798828125,174.88134765625,50.68798828125C173.25,50.68798828125,172.012451171875,49.420654296875,172.012451171875,47.750244140625" class="st0"/></g></g></g></svg>