<svg width="180" xmlns="http://www.w3.org/2000/svg" height="41" id="screenshot-4276bddd-88fe-80ec-8006-91a30a32a6bf" viewBox="0 0 180 41" xmlns:xlink="http://www.w3.org/1999/xlink" fill="none" version="1.1"><g id="shape-4276bddd-88fe-80ec-8006-91a30a32a6bf" width="178.313" height="29.427" rx="0" ry="0" style="fill: rgb(0, 0, 0);"><g id="shape-4276bddd-88fe-80ec-8006-91a30a32a6c0" style="display: none;"><g class="fills" id="fills-4276bddd-88fe-80ec-8006-91a30a32a6c0"><rect width="180" height="40.999705968679336" x="0" transform="matrix(1.000000, 0.000000, 0.000000, 1.000000, 0.000000, 0.000000)" style="fill: none;" ry="0" fill="none" rx="0" y="0"/></g></g><g id="shape-4276bddd-88fe-80ec-8006-91a30a32a6c1" class="logo" rx="0" ry="0" style="fill: rgb(0, 0, 0);"><g id="shape-4276bddd-88fe-80ec-8006-91a30a32a6c2" clip-path="url(#render-4-a)" rx="0" ry="0" style="fill: rgb(0, 0, 0);"><defs><clipPath id="render-4-a" class="svg-def svg-def" transform="matrix(1.009461, 0.000000, 0.000000, 1.393162, 0.000000, 0.000000) matrix(1.000000, 0.000000, 0.000000, 1.000000, 0.000000, 0.000000)"><rect width="178.313" height="29.423"/></clipPath></defs><g id="shape-4276bddd-88fe-80ec-8006-91a30a32a6c3"><defs style="fill: rgb(10, 10, 10); fill-opacity: 1;"/></g><g id="shape-4276bddd-88fe-80ec-8006-91a30a32a6c4"><g class="fills" id="fills-4276bddd-88fe-80ec-8006-91a30a32a6c4"><path d="M153.19580078125,32.748779296875C151.46435546875,32.748779296875,149.8037109375,31.7998046875,148.58056640625,30.110107421875C147.356201171875,28.42138671875,146.66845703125,26.129150390625,146.66845703125,23.739990234375L146.66845703125,15.4736328125C146.66845703125,15.06005859375,146.91064453125,14.7255859375,147.210693359375,14.7255859375L152.38818359375,14.7255859375L152.38818359375,6.517578125L146.66357421875,6.517578125L146.66357421875,4.547473508864641e-13L140.70751953125,4.547473508864641e-13L140.70751953125,23.723388671875C140.7099609375,33.246337890625,146.30517578125,40.964599609375,153.204833984375,40.962158203125L155.0341796875,40.962158203125L155.0341796875,32.74169921875Z" class="fills" style="fill: rgb(10, 10, 10); fill-opacity: 1;"/></g></g><g id="shape-4276bddd-88fe-80ec-8006-91a30a32a6c5"><g class="fills" id="fills-4276bddd-88fe-80ec-8006-91a30a32a6c5"><path d="M34.29541015625,6.53857421875C27.40185546875,6.53857421875,21.8134765625,14.251708984375,21.8134765625,23.766357421875C21.8134765625,33.28076171875,27.40185546875,40.994140625,34.29541015625,40.994140625C41.18896484375,40.994140625,46.77734375,33.28076171875,46.77734375,23.766357421875C46.77734375,14.251708984375,41.18896484375,6.53857421875,34.29541015625,6.53857421875ZM34.29541015625,32.7861328125C31.62939453125,32.928466796875,29.16845703125,30.820556640625,28.076171875,27.4599609375C26.98486328125,24.099609375,27.481689453125,20.16064453125,29.331787109375,17.506103515625C31.18115234375,14.853271484375,34.013916015625,14.016357421875,36.48876953125,15.392822265625C38.96435546875,16.77099609375,40.58447265625,20.083740234375,40.58447265625,23.766357421875C40.65087890625,28.652587890625,37.83544921875,32.68994140625,34.29541015625,32.7861328125Z" class="fills" style="fill: rgb(10, 10, 10); fill-opacity: 1;"/></g></g><g id="shape-4276bddd-88fe-80ec-8006-91a30a32a6c6"><g class="fills" id="fills-4276bddd-88fe-80ec-8006-91a30a32a6c6"><path d="M0,30.629150390625L0,40.19140625L5.979248046875,40.19140625L5.979248046875,33.568115234375L8.2421875,29.84521484375L8.3330078125,29.69482421875L8.341064453125,29.707275390625L14.7138671875,40.19140625L22.52001953125,40.19140625L12.54833984375,23.791259765625C12.367919921875,23.49365234375,12.367919921875,23.05859375,12.54833984375,22.76025390625L21.8125,7.36181640625L14.00634765625,7.36181640625L8.2421875,17.007568359375L5.979248046875,20.73193359375L5.979248046875,0.0224609375L0,0.0224609375L0,30.629150390625ZZ" class="fills" style="fill: rgb(10, 10, 10); fill-opacity: 1;"/></g></g><g id="shape-4276bddd-88fe-80ec-8006-91a30a32a6c7"><g class="fills" id="fills-4276bddd-88fe-80ec-8006-91a30a32a6c7"><path d="M88.0986328125,10.092529296875L80.43798828125,34.991943359375C79.642578125,37.582275390625,78.082763671875,39.577392578125,76.151611328125,40.475830078125C74.677734375,41.159912109375,73.0830078125,41.159912109375,71.609130859375,40.475830078125C69.6923828125,39.581298828125,68.140625,37.607177734375,67.340087890625,35.0419921875L67.302734375,34.92333984375L64.2744140625,25.075927734375L61.50537109375,16.083740234375L61.480224609375,16.005859375C61.38037109375,15.749267578125,61.18212890625,15.596435546875,60.97119140625,15.6103515625C60.76025390625,15.6240234375,60.57470703125,15.803955078125,60.4931640625,16.072509765625L57.720947265625,25.087158203125L52.828125,40.99267578125L46.77734375,37.44921875L54.438232421875,12.5419921875C55.5517578125,8.904541015625,58.135009765625,6.5400390625,60.99658203125,6.5400390625C63.8583984375,6.5400390625,66.44189453125,8.904541015625,67.55517578125,12.5419921875L70.6005859375,22.444091796875L73.349609375,31.38037109375L73.349609375,31.391845703125C73.360595703125,31.4404296875,73.374755859375,31.48681640625,73.39208984375,31.53125L73.39208984375,31.53955078125C73.49267578125,31.78466796875,73.68359375,31.932373046875,73.8876953125,31.922607421875C74.09228515625,31.914306640625,74.2763671875,31.75,74.36474609375,31.49609375C74.373046875,31.475341796875,74.380126953125,31.451416015625,74.38525390625,31.429443359375L77.14794921875,22.445556640625L82.0419921875,6.551025390625Z" class="fills" style="fill: rgb(10, 10, 10); fill-opacity: 1;"/></g></g><g id="shape-4276bddd-88fe-80ec-8006-91a30a32a6c8"><g class="fills" id="fills-4276bddd-88fe-80ec-8006-91a30a32a6c8"><path d="M132.8935546875,28.624755859375L138.60205078125,31.968505859375L138.60205078125,31.968505859375C135.87744140625,38.90576171875,130.088134765625,42.401611328125,124.54833984375,40.453125C119.008544921875,38.5068359375,115.135009765625,31.614501953125,115.14599609375,23.724853515625C115.157470703125,15.835693359375,119.05078125,8.964599609375,124.595703125,7.047119140625C130.140625,5.129638671875,135.9208984375,8.657958984375,138.625,15.6083984375L132.904541015625,18.95263671875C131.77587890625,16.295654296875,129.6962890625,14.685302734375,127.465576171875,14.737548828125C123.975830078125,15.072509765625,121.294921875,19.13818359375,121.380615234375,23.965576171875C121.46533203125,28.7919921875,124.287109375,32.672119140625,127.78466796875,32.77099609375C129.890625,32.6845703125,131.8173828125,31.11865234375,132.8935546875,28.624755859375Z" class="fills" style="fill: rgb(10, 10, 10); fill-opacity: 1;"/></g></g><g id="shape-4276bddd-88fe-80ec-8006-91a30a32a6c9"><g class="fills" id="fills-4276bddd-88fe-80ec-8006-91a30a32a6c9"><path d="M112.82763671875,27.064208984375C114.06103515625,18.314697265625,110.25244140625,9.711181640625,104.048095703125,7.232177734375C97.844970703125,4.75390625,91.29541015625,9.21923828125,88.95166015625,17.52587890625C86.607666015625,25.831298828125,89.243408203125,35.234619140625,95.027587890625,39.19970703125C100.811767578125,43.164794921875,107.83251953125,40.384033203125,111.21240234375,32.787841796875L105.61181640625,29.506591796875C104.13916015625,31.971435546875,101.830322265625,33.176513671875,99.5439453125,32.674560546875C97.258544921875,32.172119140625,95.33544921875,30.03759765625,94.489501953125,27.063232421875ZM94.488525390625,20.48486328125C95.46875,17.0244140625,97.88525390625,14.746337890625,100.57763671875,14.746337890625C103.27001953125,14.746337890625,105.6865234375,17.0244140625,106.666748046875,20.48486328125Z" class="fills" style="fill: rgb(10, 10, 10); fill-opacity: 1;"/></g></g><g id="shape-4276bddd-88fe-80ec-8006-91a30a32a6ca"><g class="fills" id="fills-4276bddd-88fe-80ec-8006-91a30a32a6ca"><path d="M174.054443359375,7.3603515625L174.054443359375,9.088134765625C168.8203125,4.649169921875,162.024658203125,6.126220703125,158.0322265625,12.571533203125C154.04052734375,19.0166015625,154.04052734375,28.513671875,158.0322265625,34.958740234375C162.024658203125,41.40380859375,168.8203125,42.880859375,174.054443359375,38.441650390625L174.054443359375,40.18896484375L179.9990234375,40.18896484375L179.9990234375,7.3603515625ZM167.76220703125,32.7861328125C165.096435546875,32.927001953125,162.63525390625,30.819091796875,161.5439453125,27.458740234375C160.45263671875,24.09765625,160.94921875,20.1591796875,162.7998046875,17.5048828125C164.650146484375,14.85205078125,167.482666015625,14.016357421875,169.9580078125,15.39404296875C172.43212890625,16.77099609375,174.05322265625,20.08544921875,174.05224609375,23.767822265625C174.117919921875,28.654052734375,171.302490234375,32.691650390625,167.76220703125,32.7861328125Z" class="fills" style="fill: rgb(10, 10, 10); fill-opacity: 1;"/></g></g></g></g></g></svg>